<?xml version="1.0" encoding="UTF-8" standalone="no"?>
<!-- Created with Inkscape (http://www.inkscape.org/) -->

<svg
   width="300"
   height="300"
   viewBox="0 0 79.374998 79.375"
   version="1.1"
   id="svg1"
   inkscape:version="1.3.2 (091e20e, 2023-11-25)"
   sodipodi:docname="savy_logo.svg"
   xmlns:inkscape="http://www.inkscape.org/namespaces/inkscape"
   xmlns:sodipodi="http://sodipodi.sourceforge.net/DTD/sodipodi-0.dtd"
   xmlns="http://www.w3.org/2000/svg"
   xmlns:svg="http://www.w3.org/2000/svg">
  <sodipodi:namedview
     id="namedview1"
     pagecolor="#ffffff"
     bordercolor="#000000"
     borderopacity="0.25"
     inkscape:showpageshadow="2"
     inkscape:pageopacity="0.0"
     inkscape:pagecheckerboard="0"
     inkscape:deskcolor="#d1d1d1"
     inkscape:document-units="mm"
     inkscape:zoom="0.63147889"
     inkscape:cx="315.13326"
     inkscape:cy="470.32451"
     inkscape:window-width="1512"
     inkscape:window-height="793"
     inkscape:window-x="0"
     inkscape:window-y="38"
     inkscape:window-maximized="0"
     inkscape:current-layer="layer1" />
  <defs
     id="defs1" />
  <g
     inkscape:label="Layer 1"
     inkscape:groupmode="layer"
     id="layer1">
    <path
       class="st1"
       d="m 40.543072,36.986941 c 0.306325,0.306394 -5.023406,5.717743 -12.517677,14.294293 -1.592788,1.817416 -2.981374,3.287685 -4.043231,4.369974 -2.287084,2.327879 -3.920707,3.757315 -4.900884,4.574107 -1.71531,1.449885 -2.92011,2.307495 -4.390374,3.042637 -2.695487,1.327321 -3.43062,0.673764 -3.757352,0.490079 C 9.8512779,63.166063 9.9738,61.409704 9.9942215,60.797125 10.096321,56.998913 17.692694,43.644025 16.630837,33.985202 16.528722,33.086678 15.65066,26.041679 10.586411,22.856093 7.1966336,20.732364 3.9497935,21.794188 3.3984487,19.854289 2.6837679,17.363013 6.4819237,12.441678 11.444066,11.17564 c 5.186771,-1.327337 10.659423,1.613201 13.25281,5.554346 1.449844,2.22578 1.71531,4.349525 1.960354,6.636571 0.265496,2.409626 0.428808,8.147753 -3.369362,17.459429 -3.5123,8.617368 -7.637208,13.293671 -6.963339,14.416777 0.326699,0.530993 1.592787,-0.122789 3.267261,-0.980174 0.796389,-0.408283 1.613201,-0.939341 3.532719,-2.470892 0.490089,-0.388221 0.878077,-0.694615 1.368165,-1.102657 0.612572,-0.510157 1.123113,-0.959806 1.449845,-1.245686 0.183763,-0.183685 0.326699,-0.306394 0.367527,-0.326456 0.449261,-0.42912 13.763314,-12.599361 14.232987,-12.129731 z"
       id="path3-7"
       style="fill:#e21b39;fill-opacity:1;stroke-width:2.04203" />
    <path
       class="st1"
       d="m 38.96251,37.849095 c -0.306325,-0.306394 5.023406,-5.717662 12.517679,-14.294213 1.592786,-1.817415 2.981372,-3.287684 4.043229,-4.369974 2.287084,-2.327959 3.920708,-3.757395 4.900884,-4.574188 1.715318,-1.449804 2.920118,-2.307494 4.390382,-3.042637 2.695487,-1.32732 3.43062,-0.673764 3.757344,-0.490079 1.082276,0.591969 0.959754,2.348328 0.93934,2.960987 -0.102099,3.798132 -7.69848,17.153085 -6.636615,26.811924 0.102115,0.898443 0.980177,7.943523 6.04442,11.129092 3.389783,2.123665 6.636615,1.06184 7.187968,3.00174 0.714681,2.49134 -3.083475,7.41261 -8.045623,8.678649 -5.186765,1.327336 -10.659425,-1.613201 -13.252812,-5.554282 -1.449842,-2.225844 -1.71531,-4.349589 -1.960352,-6.636635 -0.265498,-2.409625 -0.428809,-8.147753 3.36936,-17.459429 3.512299,-8.617368 7.637216,-13.293591 6.963339,-14.416777 -0.326699,-0.530993 -1.592786,0.122789 -3.267261,0.980174 -0.796389,0.408283 -1.613209,0.93934 -3.532719,2.470892 -0.490089,0.388221 -0.878077,0.694615 -1.368165,1.102738 -0.612572,0.510157 -1.123113,0.959725 -1.449845,1.245605 -0.183764,0.183685 -0.326699,0.306394 -0.367605,0.326456 C 52.76665,26.16832 39.45256,38.338965 38.962471,37.84887 Z"
       id="path4-6"
       style="fill:#e21b39;fill-opacity:1;stroke-width:2.04203" />
    <circle
       class="st1"
       cx="39.582825"
       cy="37.042179"
       id="circle4-5"
       style="display:inline;fill:#e21b39;fill-opacity:1;stroke-width:2.04203"
       r="2.9609511" />
  </g>
</svg>
